<?xml version="1.0" encoding="UTF-8" standalone="no"?>
<!DOCTYPE svg PUBLIC "-//W3C//DTD SVG 1.1//EN"
 "http://www.w3.org/Graphics/SVG/1.1/DTD/svg11.dtd">
<!-- Generated by graphviz version 2.40.1 (20161225.0304)
 -->
<!-- Title: compactRelationshipsDiagram Pages: 1 -->
<svg width="728pt" height="425pt"
 viewBox="0.00 0.00 728.00 425.20" xmlns="http://www.w3.org/2000/svg" xmlns:xlink="http://www.w3.org/1999/xlink">
<g id="graph0" class="graph" transform="scale(1 1) rotate(0) translate(4 421.2)">
<title>compactRelationshipsDiagram</title>
<polygon fill="#ffffff" stroke="transparent" points="-4,4 -4,-421.2 724,-421.2 724,4 -4,4"/>
<text text-anchor="middle" x="72.4936" y="-7.3" font-family="Helvetica,sans-Serif" font-size="11.00" fill="#000000">Generated by SchemaSpy</text>
<!-- FormTable -->
<g id="node1" class="node">
<title>FormTable</title>
<g id="a_node1"><a xlink:href="../../tables/FormTable.html" xlink:title="FormTable" target="_top">
<polygon fill="#ffffff" stroke="transparent" points="259,-142.2 259,-269.2 450,-269.2 450,-142.2 259,-142.2"/>
<polygon fill="#f5f5f5" stroke="transparent" points="259.5,-245.7 259.5,-268.7 450.5,-268.7 450.5,-245.7 259.5,-245.7"/>
<polygon fill="none" stroke="#000000" points="259.5,-245.7 259.5,-268.7 450.5,-268.7 450.5,-245.7 259.5,-245.7"/>
<text text-anchor="start" x="264.5" y="-254.8" font-family="Helvetica,sans-Serif" font-weight="bold" font-size="11.00" fill="#000000">FormTable</text>
<text text-anchor="start" x="415.5437" y="-253.8" font-family="Helvetica,sans-Serif" font-size="11.00" fill="#000000">[table]</text>
<polygon fill="none" stroke="#000000" points="259.5,-223.7 259.5,-245.7 450.5,-245.7 450.5,-223.7 259.5,-223.7"/>
<image xlink:href="../../images/primaryKeys.png" width="11px" height="12px" preserveAspectRatio="xMinYMin meet" x="264.5" y="-240.7"/>
<text text-anchor="start" x="279.5" y="-230.8" font-family="Helvetica,sans-Serif" font-size="11.00" fill="#000000">cldf_id</text>
<polygon fill="none" stroke="#000000" points="259.5,-201.7 259.5,-223.7 450.5,-223.7 450.5,-201.7 259.5,-201.7"/>
<image xlink:href="../../images/foreignKeys.png" width="11px" height="12px" preserveAspectRatio="xMinYMin meet" x="264.5" y="-218.7"/>
<text text-anchor="start" x="279.5" y="-208.8" font-family="Helvetica,sans-Serif" font-size="11.00" fill="#000000">cldf_languageReference</text>
<polygon fill="none" stroke="#000000" points="259.5,-179.7 259.5,-201.7 450.5,-201.7 450.5,-179.7 259.5,-179.7"/>
<image xlink:href="../../images/foreignKeys.png" width="11px" height="12px" preserveAspectRatio="xMinYMin meet" x="264.5" y="-196.7"/>
<text text-anchor="start" x="279.5" y="-186.8" font-family="Helvetica,sans-Serif" font-size="11.00" fill="#000000">cldf_parameterReference</text>
<polygon fill="none" stroke="#000000" points="259.5,-160.7 259.5,-179.7 450.5,-179.7 450.5,-160.7 259.5,-160.7"/>
<text text-anchor="start" x="262.5" y="-166.8" font-family="Helvetica,sans-Serif" font-size="11.00" fill="#000000">...</text>
<polygon fill="#ffffff" stroke="transparent" points="259.5,-141.7 259.5,-160.7 322.5,-160.7 322.5,-141.7 259.5,-141.7"/>
<polygon fill="none" stroke="#000000" points="259.5,-141.7 259.5,-160.7 322.5,-160.7 322.5,-141.7 259.5,-141.7"/>
<text text-anchor="start" x="262.5" y="-147.8" font-family="Helvetica,sans-Serif" font-size="11.00" fill="#000000">&lt; 2</text>
<polygon fill="#ffffff" stroke="transparent" points="322.5,-141.7 322.5,-160.7 408.5,-160.7 408.5,-141.7 322.5,-141.7"/>
<polygon fill="none" stroke="#000000" points="322.5,-141.7 322.5,-160.7 408.5,-160.7 408.5,-141.7 322.5,-141.7"/>
<text text-anchor="start" x="345.594" y="-147.8" font-family="Helvetica,sans-Serif" font-size="11.00" fill="#000000">60,533 rows</text>
<polygon fill="#ffffff" stroke="transparent" points="408.5,-141.7 408.5,-160.7 450.5,-160.7 450.5,-141.7 408.5,-141.7"/>
<polygon fill="none" stroke="#000000" points="408.5,-141.7 408.5,-160.7 450.5,-160.7 450.5,-141.7 408.5,-141.7"/>
<text text-anchor="start" x="431.9053" y="-147.8" font-family="Helvetica,sans-Serif" font-size="11.00" fill="#000000">1 &gt;</text>
</a>
</g>
</g>
<!-- LanguageTable -->
<g id="node3" class="node">
<title>LanguageTable</title>
<g id="a_node3"><a xlink:href="../../tables/LanguageTable.html" xlink:title="LanguageTable" target="_top">
<polygon fill="#ffffff" stroke="transparent" points="36.5,-246.2 36.5,-329.2 181.5,-329.2 181.5,-246.2 36.5,-246.2"/>
<polygon fill="#f5f5f5" stroke="transparent" points="37,-305.7 37,-328.7 182,-328.7 182,-305.7 37,-305.7"/>
<polygon fill="none" stroke="#000000" points="37,-305.7 37,-328.7 182,-328.7 182,-305.7 37,-305.7"/>
<text text-anchor="start" x="42" y="-314.8" font-family="Helvetica,sans-Serif" font-weight="bold" font-size="11.00" fill="#000000">LanguageTable</text>
<text text-anchor="start" x="147.0437" y="-313.8" font-family="Helvetica,sans-Serif" font-size="11.00" fill="#000000">[table]</text>
<polygon fill="none" stroke="#000000" points="37,-283.7 37,-305.7 182,-305.7 182,-283.7 37,-283.7"/>
<image xlink:href="../../images/primaryKeys.png" width="11px" height="12px" preserveAspectRatio="xMinYMin meet" x="42" y="-300.7"/>
<text text-anchor="start" x="57" y="-290.8" font-family="Helvetica,sans-Serif" font-size="11.00" fill="#000000">cldf_id</text>
<polygon fill="none" stroke="#000000" points="37,-264.7 37,-283.7 182,-283.7 182,-264.7 37,-264.7"/>
<text text-anchor="start" x="40" y="-270.8" font-family="Helvetica,sans-Serif" font-size="11.00" fill="#000000">...</text>
<polygon fill="#ffffff" stroke="transparent" points="37,-245.7 37,-264.7 80,-264.7 80,-245.7 37,-245.7"/>
<polygon fill="none" stroke="#000000" points="37,-245.7 37,-264.7 80,-264.7 80,-245.7 37,-245.7"/>
<text text-anchor="start" x="40" y="-251.8" font-family="Helvetica,sans-Serif" font-size="11.00" fill="#000000"> &#160;</text>
<polygon fill="#ffffff" stroke="transparent" points="80,-245.7 80,-264.7 145,-264.7 145,-245.7 80,-245.7"/>
<polygon fill="none" stroke="#000000" points="80,-245.7 80,-264.7 145,-264.7 145,-245.7 80,-245.7"/>
<text text-anchor="start" x="97.3807" y="-251.8" font-family="Helvetica,sans-Serif" font-size="11.00" fill="#000000">363 rows</text>
<polygon fill="#ffffff" stroke="transparent" points="145,-245.7 145,-264.7 182,-264.7 182,-245.7 145,-245.7"/>
<polygon fill="none" stroke="#000000" points="145,-245.7 145,-264.7 182,-264.7 182,-245.7 145,-245.7"/>
<text text-anchor="start" x="163.4053" y="-251.8" font-family="Helvetica,sans-Serif" font-size="11.00" fill="#000000">1 &gt;</text>
</a>
</g>
</g>
<!-- FormTable&#45;&gt;LanguageTable -->
<g id="edge1" class="edge">
<title>FormTable:w&#45;&gt;LanguageTable:e</title>
<path fill="none" stroke="#000000" d="M245.0541,-215.6184C213.5818,-230.2258 226.4654,-294.7 182,-294.7"/>
<polygon fill="#000000" stroke="#000000" points="251.6584,-214.2842 260.2129,-216.2287 255.5792,-213.4921 259.5,-212.7 259.5,-212.7 259.5,-212.7 255.5792,-213.4921 258.7871,-209.1713 251.6584,-214.2842 251.6584,-214.2842"/>
<ellipse fill="none" stroke="#000000" cx="248.5218" cy="-214.9179" rx="3.2" ry="3.2"/>
</g>
<!-- ParameterTable -->
<g id="node6" class="node">
<title>ParameterTable</title>
<g id="a_node6"><a xlink:href="../../tables/ParameterTable.html" xlink:title="ParameterTable" target="_top">
<polygon fill="#ffffff" stroke="transparent" points="8,-142.2 8,-225.2 210,-225.2 210,-142.2 8,-142.2"/>
<polygon fill="#f5f5f5" stroke="transparent" points="8,-201.7 8,-224.7 210,-224.7 210,-201.7 8,-201.7"/>
<polygon fill="none" stroke="#000000" points="8,-201.7 8,-224.7 210,-224.7 210,-201.7 8,-201.7"/>
<text text-anchor="start" x="13" y="-210.8" font-family="Helvetica,sans-Serif" font-weight="bold" font-size="11.00" fill="#000000">ParameterTable</text>
<text text-anchor="start" x="175.0437" y="-209.8" font-family="Helvetica,sans-Serif" font-size="11.00" fill="#000000">[table]</text>
<polygon fill="none" stroke="#000000" points="8,-179.7 8,-201.7 210,-201.7 210,-179.7 8,-179.7"/>
<image xlink:href="../../images/primaryKeys.png" width="11px" height="12px" preserveAspectRatio="xMinYMin meet" x="13" y="-196.7"/>
<text text-anchor="start" x="28" y="-186.8" font-family="Helvetica,sans-Serif" font-size="11.00" fill="#000000">cldf_id</text>
<polygon fill="none" stroke="#000000" points="8,-160.7 8,-179.7 210,-179.7 210,-160.7 8,-160.7"/>
<text text-anchor="start" x="11" y="-166.8" font-family="Helvetica,sans-Serif" font-size="11.00" fill="#000000">...</text>
<polygon fill="#ffffff" stroke="transparent" points="8,-141.7 8,-160.7 79,-160.7 79,-141.7 8,-141.7"/>
<polygon fill="none" stroke="#000000" points="8,-141.7 8,-160.7 79,-160.7 79,-141.7 8,-141.7"/>
<text text-anchor="start" x="11" y="-147.8" font-family="Helvetica,sans-Serif" font-size="11.00" fill="#000000"> &#160;</text>
<polygon fill="#ffffff" stroke="transparent" points="79,-141.7 79,-160.7 159,-160.7 159,-141.7 79,-141.7"/>
<polygon fill="none" stroke="#000000" points="79,-141.7 79,-160.7 159,-160.7 159,-141.7 79,-141.7"/>
<text text-anchor="start" x="111.3807" y="-147.8" font-family="Helvetica,sans-Serif" font-size="11.00" fill="#000000">168 rows</text>
<polygon fill="#ffffff" stroke="transparent" points="159,-141.7 159,-160.7 210,-160.7 210,-141.7 159,-141.7"/>
<polygon fill="none" stroke="#000000" points="159,-141.7 159,-160.7 210,-160.7 210,-141.7 159,-141.7"/>
<text text-anchor="start" x="191.4053" y="-147.8" font-family="Helvetica,sans-Serif" font-size="11.00" fill="#000000">2 &gt;</text>
</a>
</g>
</g>
<!-- FormTable&#45;&gt;ParameterTable -->
<g id="edge2" class="edge">
<title>FormTable:w&#45;&gt;ParameterTable:e</title>
<path fill="none" stroke="#000000" d="M244.8428,-190.7C233.4139,-190.7 226.1563,-190.7 210,-190.7"/>
<polygon fill="#000000" stroke="#000000" points="251.5,-190.7001 259.5,-194.3 255.5,-190.7 259.5,-190.7 259.5,-190.7 259.5,-190.7 255.5,-190.7 259.5,-187.1 251.5,-190.7001 251.5,-190.7001"/>
<ellipse fill="none" stroke="#000000" cx="248.3" cy="-190.7001" rx="3.2" ry="3.2"/>
</g>
<!-- FormTable_SourceTable -->
<g id="node2" class="node">
<title>FormTable_SourceTable</title>
<g id="a_node2"><a xlink:href="../../tables/FormTable_SourceTable.html" xlink:title="FormTable_SourceTable" target="_top">
<polygon fill="#ffffff" stroke="transparent" points="514.5,-56.2 514.5,-161.2 696.5,-161.2 696.5,-56.2 514.5,-56.2"/>
<polygon fill="#f5f5f5" stroke="transparent" points="514.5,-137.7 514.5,-160.7 696.5,-160.7 696.5,-137.7 514.5,-137.7"/>
<polygon fill="none" stroke="#000000" points="514.5,-137.7 514.5,-160.7 696.5,-160.7 696.5,-137.7 514.5,-137.7"/>
<text text-anchor="start" x="519.5" y="-146.8" font-family="Helvetica,sans-Serif" font-weight="bold" font-size="11.00" fill="#000000">FormTable_SourceTable</text>
<text text-anchor="start" x="661.5437" y="-145.8" font-family="Helvetica,sans-Serif" font-size="11.00" fill="#000000">[table]</text>
<polygon fill="none" stroke="#000000" points="514.5,-115.7 514.5,-137.7 696.5,-137.7 696.5,-115.7 514.5,-115.7"/>
<image xlink:href="../../images/foreignKeys.png" width="11px" height="12px" preserveAspectRatio="xMinYMin meet" x="519.5" y="-132.7"/>
<text text-anchor="start" x="534.5" y="-122.8" font-family="Helvetica,sans-Serif" font-size="11.00" fill="#000000">FormTable_cldf_id</text>
<polygon fill="none" stroke="#000000" points="514.5,-93.7 514.5,-115.7 696.5,-115.7 696.5,-93.7 514.5,-93.7"/>
<image xlink:href="../../images/foreignKeys.png" width="11px" height="12px" preserveAspectRatio="xMinYMin meet" x="519.5" y="-110.7"/>
<text text-anchor="start" x="534.5" y="-100.8" font-family="Helvetica,sans-Serif" font-size="11.00" fill="#000000">SourceTable_id</text>
<polygon fill="none" stroke="#000000" points="514.5,-74.7 514.5,-93.7 696.5,-93.7 696.5,-74.7 514.5,-74.7"/>
<text text-anchor="start" x="517.5" y="-80.8" font-family="Helvetica,sans-Serif" font-size="11.00" fill="#000000">...</text>
<polygon fill="#ffffff" stroke="transparent" points="514.5,-55.7 514.5,-74.7 577.5,-74.7 577.5,-55.7 514.5,-55.7"/>
<polygon fill="none" stroke="#000000" points="514.5,-55.7 514.5,-74.7 577.5,-74.7 577.5,-55.7 514.5,-55.7"/>
<text text-anchor="start" x="517.5" y="-61.8" font-family="Helvetica,sans-Serif" font-size="11.00" fill="#000000">&lt; 2</text>
<polygon fill="#ffffff" stroke="transparent" points="577.5,-55.7 577.5,-74.7 663.5,-74.7 663.5,-55.7 577.5,-55.7"/>
<polygon fill="none" stroke="#000000" points="577.5,-55.7 577.5,-74.7 663.5,-74.7 663.5,-55.7 577.5,-55.7"/>
<text text-anchor="start" x="600.594" y="-61.8" font-family="Helvetica,sans-Serif" font-size="11.00" fill="#000000">60,533 rows</text>
<polygon fill="#ffffff" stroke="transparent" points="663.5,-55.7 663.5,-74.7 696.5,-74.7 696.5,-55.7 663.5,-55.7"/>
<polygon fill="none" stroke="#000000" points="663.5,-55.7 663.5,-74.7 696.5,-74.7 696.5,-55.7 663.5,-55.7"/>
<text text-anchor="start" x="687.3862" y="-61.8" font-family="Helvetica,sans-Serif" font-size="11.00" fill="#000000"> &#160;</text>
</a>
</g>
</g>
<!-- FormTable_SourceTable&#45;&gt;FormTable -->
<g id="edge3" class="edge">
<title>FormTable_SourceTable:w&#45;&gt;FormTable:e</title>
<path fill="none" stroke="#000000" d="M500.0536,-130.0507C467.5935,-148.2799 500.4104,-234.7 450.5,-234.7"/>
<polygon fill="#000000" stroke="#000000" points="506.7069,-128.5076 515.3134,-130.2069 510.6034,-127.6038 514.5,-126.7 514.5,-126.7 514.5,-126.7 510.6034,-127.6038 513.6866,-123.1931 506.7069,-128.5076 506.7069,-128.5076"/>
<ellipse fill="none" stroke="#000000" cx="503.5896" cy="-129.2306" rx="3.2" ry="3.2"/>
</g>
<!-- SourceTable -->
<g id="node8" class="node">
<title>SourceTable</title>
<g id="a_node8"><a xlink:href="../../tables/SourceTable.html" xlink:title="SourceTable" target="_top">
<polygon fill="#ffffff" stroke="transparent" points="297,-38.2 297,-121.2 412,-121.2 412,-38.2 297,-38.2"/>
<polygon fill="#f5f5f5" stroke="transparent" points="297.5,-97.7 297.5,-120.7 412.5,-120.7 412.5,-97.7 297.5,-97.7"/>
<polygon fill="none" stroke="#000000" points="297.5,-97.7 297.5,-120.7 412.5,-120.7 412.5,-97.7 297.5,-97.7"/>
<text text-anchor="start" x="302.5" y="-106.8" font-family="Helvetica,sans-Serif" font-weight="bold" font-size="11.00" fill="#000000">SourceTable</text>
<text text-anchor="start" x="377.5437" y="-105.8" font-family="Helvetica,sans-Serif" font-size="11.00" fill="#000000">[table]</text>
<polygon fill="none" stroke="#000000" points="297.5,-75.7 297.5,-97.7 412.5,-97.7 412.5,-75.7 297.5,-75.7"/>
<image xlink:href="../../images/primaryKeys.png" width="11px" height="12px" preserveAspectRatio="xMinYMin meet" x="302.5" y="-92.7"/>
<text text-anchor="start" x="317.5" y="-82.8" font-family="Helvetica,sans-Serif" font-size="11.00" fill="#000000">id</text>
<polygon fill="none" stroke="#000000" points="297.5,-56.7 297.5,-75.7 412.5,-75.7 412.5,-56.7 297.5,-56.7"/>
<text text-anchor="start" x="300.5" y="-62.8" font-family="Helvetica,sans-Serif" font-size="11.00" fill="#000000">...</text>
<polygon fill="#ffffff" stroke="transparent" points="297.5,-37.7 297.5,-56.7 331.5,-56.7 331.5,-37.7 297.5,-37.7"/>
<polygon fill="none" stroke="#000000" points="297.5,-37.7 297.5,-56.7 331.5,-56.7 331.5,-37.7 297.5,-37.7"/>
<text text-anchor="start" x="300.5" y="-43.8" font-family="Helvetica,sans-Serif" font-size="11.00" fill="#000000"> &#160;</text>
<polygon fill="#ffffff" stroke="transparent" points="331.5,-37.7 331.5,-56.7 380.5,-56.7 380.5,-37.7 331.5,-37.7"/>
<polygon fill="none" stroke="#000000" points="331.5,-37.7 331.5,-56.7 380.5,-56.7 380.5,-37.7 331.5,-37.7"/>
<text text-anchor="start" x="345.1105" y="-43.8" font-family="Helvetica,sans-Serif" font-size="11.00" fill="#000000">2 rows</text>
<polygon fill="#ffffff" stroke="transparent" points="380.5,-37.7 380.5,-56.7 412.5,-56.7 412.5,-37.7 380.5,-37.7"/>
<polygon fill="none" stroke="#000000" points="380.5,-37.7 380.5,-56.7 412.5,-56.7 412.5,-37.7 380.5,-37.7"/>
<text text-anchor="start" x="393.9053" y="-43.8" font-family="Helvetica,sans-Serif" font-size="11.00" fill="#000000">2 &gt;</text>
</a>
</g>
</g>
<!-- FormTable_SourceTable&#45;&gt;SourceTable -->
<g id="edge4" class="edge">
<title>FormTable_SourceTable:w&#45;&gt;SourceTable:e</title>
<path fill="none" stroke="#000000" d="M499.6874,-104.0164C465.6425,-100.7284 453.1392,-86.7 412.5,-86.7"/>
<polygon fill="#000000" stroke="#000000" points="506.5085,-104.3311 514.334,-108.2962 510.5043,-104.5156 514.5,-104.7 514.5,-104.7 514.5,-104.7 510.5043,-104.5156 514.666,-101.1038 506.5085,-104.3311 506.5085,-104.3311"/>
<ellipse fill="none" stroke="#000000" cx="503.3119" cy="-104.1836" rx="3.2" ry="3.2"/>
</g>
<!-- MediaTable -->
<g id="node4" class="node">
<title>MediaTable</title>
<g id="a_node4"><a xlink:href="../../tables/MediaTable.html" xlink:title="MediaTable" target="_top">
<polygon fill="#ffffff" stroke="transparent" points="286,-290.2 286,-373.2 423,-373.2 423,-290.2 286,-290.2"/>
<polygon fill="#f5f5f5" stroke="transparent" points="286.5,-349.7 286.5,-372.7 423.5,-372.7 423.5,-349.7 286.5,-349.7"/>
<polygon fill="none" stroke="#000000" points="286.5,-349.7 286.5,-372.7 423.5,-372.7 423.5,-349.7 286.5,-349.7"/>
<text text-anchor="start" x="291.5" y="-358.8" font-family="Helvetica,sans-Serif" font-weight="bold" font-size="11.00" fill="#000000">MediaTable</text>
<text text-anchor="start" x="388.5437" y="-357.8" font-family="Helvetica,sans-Serif" font-size="11.00" fill="#000000">[table]</text>
<polygon fill="none" stroke="#000000" points="286.5,-327.7 286.5,-349.7 423.5,-349.7 423.5,-327.7 286.5,-327.7"/>
<image xlink:href="../../images/primaryKeys.png" width="11px" height="12px" preserveAspectRatio="xMinYMin meet" x="291.5" y="-344.7"/>
<text text-anchor="start" x="306.5" y="-334.8" font-family="Helvetica,sans-Serif" font-size="11.00" fill="#000000">cldf_id</text>
<polygon fill="none" stroke="#000000" points="286.5,-308.7 286.5,-327.7 423.5,-327.7 423.5,-308.7 286.5,-308.7"/>
<text text-anchor="start" x="289.5" y="-314.8" font-family="Helvetica,sans-Serif" font-size="11.00" fill="#000000">...</text>
<polygon fill="#ffffff" stroke="transparent" points="286.5,-289.7 286.5,-308.7 325.5,-308.7 325.5,-289.7 286.5,-289.7"/>
<polygon fill="none" stroke="#000000" points="286.5,-289.7 286.5,-308.7 325.5,-308.7 325.5,-289.7 286.5,-289.7"/>
<text text-anchor="start" x="289.5" y="-295.8" font-family="Helvetica,sans-Serif" font-size="11.00" fill="#000000"> &#160;</text>
<polygon fill="#ffffff" stroke="transparent" points="325.5,-289.7 325.5,-308.7 388.5,-308.7 388.5,-289.7 325.5,-289.7"/>
<polygon fill="none" stroke="#000000" points="325.5,-289.7 325.5,-308.7 388.5,-308.7 388.5,-289.7 325.5,-289.7"/>
<text text-anchor="start" x="340.8807" y="-295.8" font-family="Helvetica,sans-Serif" font-size="11.00" fill="#000000">336 rows</text>
<polygon fill="#ffffff" stroke="transparent" points="388.5,-289.7 388.5,-308.7 423.5,-308.7 423.5,-289.7 388.5,-289.7"/>
<polygon fill="none" stroke="#000000" points="388.5,-289.7 388.5,-308.7 423.5,-308.7 423.5,-289.7 388.5,-289.7"/>
<text text-anchor="start" x="404.9053" y="-295.8" font-family="Helvetica,sans-Serif" font-size="11.00" fill="#000000">2 &gt;</text>
</a>
</g>
</g>
<!-- MediaTable_SourceTable -->
<g id="node5" class="node">
<title>MediaTable_SourceTable</title>
<g id="a_node5"><a xlink:href="../../tables/MediaTable_SourceTable.html" xlink:title="MediaTable_SourceTable" target="_top">
<polygon fill="#ffffff" stroke="transparent" points="511.5,-182.2 511.5,-287.2 699.5,-287.2 699.5,-182.2 511.5,-182.2"/>
<polygon fill="#f5f5f5" stroke="transparent" points="511.5,-263.7 511.5,-286.7 699.5,-286.7 699.5,-263.7 511.5,-263.7"/>
<polygon fill="none" stroke="#000000" points="511.5,-263.7 511.5,-286.7 699.5,-286.7 699.5,-263.7 511.5,-263.7"/>
<text text-anchor="start" x="516.5" y="-272.8" font-family="Helvetica,sans-Serif" font-weight="bold" font-size="11.00" fill="#000000">MediaTable_SourceTable</text>
<text text-anchor="start" x="664.5437" y="-271.8" font-family="Helvetica,sans-Serif" font-size="11.00" fill="#000000">[table]</text>
<polygon fill="none" stroke="#000000" points="511.5,-241.7 511.5,-263.7 699.5,-263.7 699.5,-241.7 511.5,-241.7"/>
<image xlink:href="../../images/foreignKeys.png" width="11px" height="12px" preserveAspectRatio="xMinYMin meet" x="516.5" y="-258.7"/>
<text text-anchor="start" x="531.5" y="-248.8" font-family="Helvetica,sans-Serif" font-size="11.00" fill="#000000">MediaTable_cldf_id</text>
<polygon fill="none" stroke="#000000" points="511.5,-219.7 511.5,-241.7 699.5,-241.7 699.5,-219.7 511.5,-219.7"/>
<image xlink:href="../../images/foreignKeys.png" width="11px" height="12px" preserveAspectRatio="xMinYMin meet" x="516.5" y="-236.7"/>
<text text-anchor="start" x="531.5" y="-226.8" font-family="Helvetica,sans-Serif" font-size="11.00" fill="#000000">SourceTable_id</text>
<polygon fill="none" stroke="#000000" points="511.5,-200.7 511.5,-219.7 699.5,-219.7 699.5,-200.7 511.5,-200.7"/>
<text text-anchor="start" x="514.5" y="-206.8" font-family="Helvetica,sans-Serif" font-size="11.00" fill="#000000">...</text>
<polygon fill="#ffffff" stroke="transparent" points="511.5,-181.7 511.5,-200.7 584.5,-200.7 584.5,-181.7 511.5,-181.7"/>
<polygon fill="none" stroke="#000000" points="511.5,-181.7 511.5,-200.7 584.5,-200.7 584.5,-181.7 511.5,-181.7"/>
<text text-anchor="start" x="514.5" y="-187.8" font-family="Helvetica,sans-Serif" font-size="11.00" fill="#000000">&lt; 2</text>
<polygon fill="#ffffff" stroke="transparent" points="584.5,-181.7 584.5,-200.7 660.5,-200.7 660.5,-181.7 584.5,-181.7"/>
<polygon fill="none" stroke="#000000" points="584.5,-181.7 584.5,-200.7 660.5,-200.7 660.5,-181.7 584.5,-181.7"/>
<text text-anchor="start" x="612.8807" y="-187.8" font-family="Helvetica,sans-Serif" font-size="11.00" fill="#000000">336 rows</text>
<polygon fill="#ffffff" stroke="transparent" points="660.5,-181.7 660.5,-200.7 699.5,-200.7 699.5,-181.7 660.5,-181.7"/>
<polygon fill="none" stroke="#000000" points="660.5,-181.7 660.5,-200.7 699.5,-200.7 699.5,-181.7 660.5,-181.7"/>
<text text-anchor="start" x="690.3862" y="-187.8" font-family="Helvetica,sans-Serif" font-size="11.00" fill="#000000"> &#160;</text>
</a>
</g>
</g>
<!-- MediaTable_SourceTable&#45;&gt;MediaTable -->
<g id="edge5" class="edge">
<title>MediaTable_SourceTable:w&#45;&gt;MediaTable:e</title>
<path fill="none" stroke="#000000" d="M497.032,-255.1811C460.3703,-269.2817 472.6324,-338.7 423.5,-338.7"/>
<polygon fill="#000000" stroke="#000000" points="503.6151,-254.0522 512.1085,-256.2482 507.5575,-253.3761 511.5,-252.7 511.5,-252.7 511.5,-252.7 507.5575,-253.3761 510.8915,-249.1518 503.6151,-254.0522 503.6151,-254.0522"/>
<ellipse fill="none" stroke="#000000" cx="500.4611" cy="-254.5931" rx="3.2" ry="3.2"/>
</g>
<!-- MediaTable_SourceTable&#45;&gt;SourceTable -->
<g id="edge6" class="edge">
<title>MediaTable_SourceTable:w&#45;&gt;SourceTable:e</title>
<path fill="none" stroke="#000000" d="M497.2557,-228.5427C466.7671,-217.5808 484.5977,-167.187 458,-131.7 440.9421,-108.9411 440.9418,-86.7 412.5,-86.7"/>
<polygon fill="#000000" stroke="#000000" points="503.5902,-229.502 510.9609,-234.2594 507.5451,-230.101 511.5,-230.7 511.5,-230.7 511.5,-230.7 507.5451,-230.101 512.0391,-227.1406 503.5902,-229.502 503.5902,-229.502"/>
<ellipse fill="none" stroke="#000000" cx="500.4263" cy="-229.0228" rx="3.2" ry="3.2"/>
</g>
<!-- ParameterTable_MediaTable -->
<g id="node7" class="node">
<title>ParameterTable_MediaTable</title>
<g id="a_node7"><a xlink:href="../../tables/ParameterTable_MediaTable.html" xlink:title="ParameterTable_MediaTable" target="_top">
<polygon fill="#ffffff" stroke="transparent" points="499,-308.2 499,-413.2 712,-413.2 712,-308.2 499,-308.2"/>
<polygon fill="#f5f5f5" stroke="transparent" points="499.5,-389.7 499.5,-412.7 712.5,-412.7 712.5,-389.7 499.5,-389.7"/>
<polygon fill="none" stroke="#000000" points="499.5,-389.7 499.5,-412.7 712.5,-412.7 712.5,-389.7 499.5,-389.7"/>
<text text-anchor="start" x="504.5" y="-398.8" font-family="Helvetica,sans-Serif" font-weight="bold" font-size="11.00" fill="#000000">ParameterTable_MediaTable</text>
<text text-anchor="start" x="677.5437" y="-397.8" font-family="Helvetica,sans-Serif" font-size="11.00" fill="#000000">[table]</text>
<polygon fill="none" stroke="#000000" points="499.5,-367.7 499.5,-389.7 712.5,-389.7 712.5,-367.7 499.5,-367.7"/>
<image xlink:href="../../images/foreignKeys.png" width="11px" height="12px" preserveAspectRatio="xMinYMin meet" x="504.5" y="-384.7"/>
<text text-anchor="start" x="519.5" y="-374.8" font-family="Helvetica,sans-Serif" font-size="11.00" fill="#000000">ParameterTable_cldf_id</text>
<polygon fill="none" stroke="#000000" points="499.5,-345.7 499.5,-367.7 712.5,-367.7 712.5,-345.7 499.5,-345.7"/>
<image xlink:href="../../images/foreignKeys.png" width="11px" height="12px" preserveAspectRatio="xMinYMin meet" x="504.5" y="-362.7"/>
<text text-anchor="start" x="519.5" y="-352.8" font-family="Helvetica,sans-Serif" font-size="11.00" fill="#000000">MediaTable_cldf_id</text>
<polygon fill="none" stroke="#000000" points="499.5,-326.7 499.5,-345.7 712.5,-345.7 712.5,-326.7 499.5,-326.7"/>
<text text-anchor="start" x="502.5" y="-332.8" font-family="Helvetica,sans-Serif" font-size="11.00" fill="#000000">...</text>
<polygon fill="#ffffff" stroke="transparent" points="499.5,-307.7 499.5,-326.7 585.5,-326.7 585.5,-307.7 499.5,-307.7"/>
<polygon fill="none" stroke="#000000" points="499.5,-307.7 499.5,-326.7 585.5,-326.7 585.5,-307.7 499.5,-307.7"/>
<text text-anchor="start" x="502.5" y="-313.8" font-family="Helvetica,sans-Serif" font-size="11.00" fill="#000000">&lt; 2</text>
<polygon fill="#ffffff" stroke="transparent" points="585.5,-307.7 585.5,-326.7 667.5,-326.7 667.5,-307.7 585.5,-307.7"/>
<polygon fill="none" stroke="#000000" points="585.5,-307.7 585.5,-326.7 667.5,-326.7 667.5,-307.7 585.5,-307.7"/>
<text text-anchor="start" x="619.8807" y="-313.8" font-family="Helvetica,sans-Serif" font-size="11.00" fill="#000000">336 rows</text>
<polygon fill="#ffffff" stroke="transparent" points="667.5,-307.7 667.5,-326.7 712.5,-326.7 712.5,-307.7 667.5,-307.7"/>
<polygon fill="none" stroke="#000000" points="667.5,-307.7 667.5,-326.7 712.5,-326.7 712.5,-307.7 667.5,-307.7"/>
<text text-anchor="start" x="703.3862" y="-313.8" font-family="Helvetica,sans-Serif" font-size="11.00" fill="#000000"> &#160;</text>
</a>
</g>
</g>
<!-- ParameterTable_MediaTable&#45;&gt;MediaTable -->
<g id="edge7" class="edge">
<title>ParameterTable_MediaTable:w&#45;&gt;MediaTable:e</title>
<path fill="none" stroke="#000000" d="M485.0748,-355.519C462.046,-351.5145 452.7884,-338.7 423.5,-338.7"/>
<polygon fill="#000000" stroke="#000000" points="491.5267,-356.0472 499.2062,-360.288 495.5133,-356.3736 499.5,-356.7 499.5,-356.7 499.5,-356.7 495.5133,-356.3736 499.7938,-353.112 491.5267,-356.0472 491.5267,-356.0472"/>
<ellipse fill="none" stroke="#000000" cx="488.3373" cy="-355.786" rx="3.2" ry="3.2"/>
</g>
<!-- ParameterTable_MediaTable&#45;&gt;ParameterTable -->
<g id="edge8" class="edge">
<title>ParameterTable_MediaTable:w&#45;&gt;ParameterTable:e</title>
<path fill="none" stroke="#000000" d="M485.0864,-379.6775C476.6642,-380.9054 470.6044,-382.9434 458,-383.7 366.1653,-389.2123 322.4941,-441.6016 251,-383.7 182.8538,-328.5097 297.6919,-190.7 210,-190.7"/>
<polygon fill="#000000" stroke="#000000" points="491.5183,-379.2413 499.7436,-382.2917 495.5092,-378.9707 499.5,-378.7 499.5,-378.7 499.5,-378.7 495.5092,-378.9707 499.2564,-375.1083 491.5183,-379.2413 491.5183,-379.2413"/>
<ellipse fill="none" stroke="#000000" cx="488.3257" cy="-379.4579" rx="3.2" ry="3.2"/>
</g>
</g>
</svg>

