<?xml version="1.0" encoding="UTF-8" standalone="no"?>
<!DOCTYPE svg PUBLIC "-//W3C//DTD SVG 1.1//EN"
 "http://www.w3.org/Graphics/SVG/1.1/DTD/svg11.dtd">
<!-- Generated by graphviz version 2.40.1 (20161225.0304)
 -->
<!-- Title: compactRelationshipsDiagram Pages: 1 -->
<svg width="697pt" height="300pt"
 viewBox="0.00 0.00 697.00 300.20" xmlns="http://www.w3.org/2000/svg" xmlns:xlink="http://www.w3.org/1999/xlink">
<g id="graph0" class="graph" transform="scale(1 1) rotate(0) translate(4 296.2)">
<title>compactRelationshipsDiagram</title>
<polygon fill="#ffffff" stroke="transparent" points="-4,4 -4,-296.2 693,-296.2 693,4 -4,4"/>
<text text-anchor="middle" x="72.4936" y="-7.3" font-family="Helvetica,sans-Serif" font-size="11.00" fill="#000000">Generated by SchemaSpy</text>
<!-- FormTable -->
<g id="node1" class="node">
<title>FormTable</title>
<g id="a_node1"><a xlink:href="../../tables/FormTable.html" xlink:title="FormTable" target="_top">
<polygon fill="#ffffff" stroke="transparent" points="259,-142.2 259,-269.2 450,-269.2 450,-142.2 259,-142.2"/>
<polygon fill="#f5f5f5" stroke="transparent" points="259.5,-245.7 259.5,-268.7 450.5,-268.7 450.5,-245.7 259.5,-245.7"/>
<polygon fill="none" stroke="#000000" points="259.5,-245.7 259.5,-268.7 450.5,-268.7 450.5,-245.7 259.5,-245.7"/>
<text text-anchor="start" x="264.5" y="-254.8" font-family="Helvetica,sans-Serif" font-weight="bold" font-size="11.00" fill="#000000">FormTable</text>
<text text-anchor="start" x="415.5437" y="-253.8" font-family="Helvetica,sans-Serif" font-size="11.00" fill="#000000">[table]</text>
<polygon fill="none" stroke="#000000" points="259.5,-223.7 259.5,-245.7 450.5,-245.7 450.5,-223.7 259.5,-223.7"/>
<image xlink:href="../../images/primaryKeys.png" width="11px" height="12px" preserveAspectRatio="xMinYMin meet" x="264.5" y="-240.7"/>
<text text-anchor="start" x="279.5" y="-230.8" font-family="Helvetica,sans-Serif" font-size="11.00" fill="#000000">cldf_id</text>
<polygon fill="none" stroke="#000000" points="259.5,-201.7 259.5,-223.7 450.5,-223.7 450.5,-201.7 259.5,-201.7"/>
<image xlink:href="../../images/foreignKeys.png" width="11px" height="12px" preserveAspectRatio="xMinYMin meet" x="264.5" y="-218.7"/>
<text text-anchor="start" x="279.5" y="-208.8" font-family="Helvetica,sans-Serif" font-size="11.00" fill="#000000">cldf_languageReference</text>
<polygon fill="none" stroke="#000000" points="259.5,-179.7 259.5,-201.7 450.5,-201.7 450.5,-179.7 259.5,-179.7"/>
<image xlink:href="../../images/foreignKeys.png" width="11px" height="12px" preserveAspectRatio="xMinYMin meet" x="264.5" y="-196.7"/>
<text text-anchor="start" x="279.5" y="-186.8" font-family="Helvetica,sans-Serif" font-size="11.00" fill="#000000">cldf_parameterReference</text>
<polygon fill="none" stroke="#000000" points="259.5,-160.7 259.5,-179.7 450.5,-179.7 450.5,-160.7 259.5,-160.7"/>
<text text-anchor="start" x="262.5" y="-166.8" font-family="Helvetica,sans-Serif" font-size="11.00" fill="#000000">...</text>
<polygon fill="#ffffff" stroke="transparent" points="259.5,-141.7 259.5,-160.7 322.5,-160.7 322.5,-141.7 259.5,-141.7"/>
<polygon fill="none" stroke="#000000" points="259.5,-141.7 259.5,-160.7 322.5,-160.7 322.5,-141.7 259.5,-141.7"/>
<text text-anchor="start" x="262.5" y="-147.8" font-family="Helvetica,sans-Serif" font-size="11.00" fill="#000000">&lt; 2</text>
<polygon fill="#ffffff" stroke="transparent" points="322.5,-141.7 322.5,-160.7 408.5,-160.7 408.5,-141.7 322.5,-141.7"/>
<polygon fill="none" stroke="#000000" points="322.5,-141.7 322.5,-160.7 408.5,-160.7 408.5,-141.7 322.5,-141.7"/>
<text text-anchor="start" x="345.594" y="-147.8" font-family="Helvetica,sans-Serif" font-size="11.00" fill="#000000">60,533 rows</text>
<polygon fill="#ffffff" stroke="transparent" points="408.5,-141.7 408.5,-160.7 450.5,-160.7 450.5,-141.7 408.5,-141.7"/>
<polygon fill="none" stroke="#000000" points="408.5,-141.7 408.5,-160.7 450.5,-160.7 450.5,-141.7 408.5,-141.7"/>
<text text-anchor="start" x="431.9053" y="-147.8" font-family="Helvetica,sans-Serif" font-size="11.00" fill="#000000">1 &gt;</text>
</a>
</g>
</g>
<!-- LanguageTable -->
<g id="node3" class="node">
<title>LanguageTable</title>
<g id="a_node3"><a xlink:href="../../tables/LanguageTable.html" xlink:title="LanguageTable" target="_top">
<polygon fill="#ffffff" stroke="transparent" points="36.5,-205.2 36.5,-288.2 181.5,-288.2 181.5,-205.2 36.5,-205.2"/>
<polygon fill="#f5f5f5" stroke="transparent" points="37,-264.7 37,-287.7 182,-287.7 182,-264.7 37,-264.7"/>
<polygon fill="none" stroke="#000000" points="37,-264.7 37,-287.7 182,-287.7 182,-264.7 37,-264.7"/>
<text text-anchor="start" x="42" y="-273.8" font-family="Helvetica,sans-Serif" font-weight="bold" font-size="11.00" fill="#000000">LanguageTable</text>
<text text-anchor="start" x="147.0437" y="-272.8" font-family="Helvetica,sans-Serif" font-size="11.00" fill="#000000">[table]</text>
<polygon fill="none" stroke="#000000" points="37,-242.7 37,-264.7 182,-264.7 182,-242.7 37,-242.7"/>
<image xlink:href="../../images/primaryKeys.png" width="11px" height="12px" preserveAspectRatio="xMinYMin meet" x="42" y="-259.7"/>
<text text-anchor="start" x="57" y="-249.8" font-family="Helvetica,sans-Serif" font-size="11.00" fill="#000000">cldf_id</text>
<polygon fill="none" stroke="#000000" points="37,-223.7 37,-242.7 182,-242.7 182,-223.7 37,-223.7"/>
<text text-anchor="start" x="40" y="-229.8" font-family="Helvetica,sans-Serif" font-size="11.00" fill="#000000">...</text>
<polygon fill="#ffffff" stroke="transparent" points="37,-204.7 37,-223.7 80,-223.7 80,-204.7 37,-204.7"/>
<polygon fill="none" stroke="#000000" points="37,-204.7 37,-223.7 80,-223.7 80,-204.7 37,-204.7"/>
<text text-anchor="start" x="40" y="-210.8" font-family="Helvetica,sans-Serif" font-size="11.00" fill="#000000"> &#160;</text>
<polygon fill="#ffffff" stroke="transparent" points="80,-204.7 80,-223.7 145,-223.7 145,-204.7 80,-204.7"/>
<polygon fill="none" stroke="#000000" points="80,-204.7 80,-223.7 145,-223.7 145,-204.7 80,-204.7"/>
<text text-anchor="start" x="97.3807" y="-210.8" font-family="Helvetica,sans-Serif" font-size="11.00" fill="#000000">363 rows</text>
<polygon fill="#ffffff" stroke="transparent" points="145,-204.7 145,-223.7 182,-223.7 182,-204.7 145,-204.7"/>
<polygon fill="none" stroke="#000000" points="145,-204.7 145,-223.7 182,-223.7 182,-204.7 145,-204.7"/>
<text text-anchor="start" x="163.4053" y="-210.8" font-family="Helvetica,sans-Serif" font-size="11.00" fill="#000000">1 &gt;</text>
</a>
</g>
</g>
<!-- FormTable&#45;&gt;LanguageTable -->
<g id="edge1" class="edge">
<title>FormTable:w&#45;&gt;LanguageTable:e</title>
<path fill="none" stroke="#000000" d="M245.179,-214.9043C219.8756,-223.4205 215.4877,-253.7 182,-253.7"/>
<polygon fill="#000000" stroke="#000000" points="251.5931,-213.9171 260.0477,-216.2581 255.5466,-213.3086 259.5,-212.7 259.5,-212.7 259.5,-212.7 255.5466,-213.3086 258.9523,-209.1419 251.5931,-213.9171 251.5931,-213.9171"/>
<ellipse fill="none" stroke="#000000" cx="248.4304" cy="-214.4039" rx="3.2" ry="3.2"/>
</g>
<!-- ParameterTable -->
<g id="node4" class="node">
<title>ParameterTable</title>
<g id="a_node4"><a xlink:href="../../tables/ParameterTable.html" xlink:title="ParameterTable" target="_top">
<polygon fill="#ffffff" stroke="transparent" points="8,-101.2 8,-184.2 210,-184.2 210,-101.2 8,-101.2"/>
<polygon fill="#f5f5f5" stroke="transparent" points="8,-160.7 8,-183.7 210,-183.7 210,-160.7 8,-160.7"/>
<polygon fill="none" stroke="#000000" points="8,-160.7 8,-183.7 210,-183.7 210,-160.7 8,-160.7"/>
<text text-anchor="start" x="13" y="-169.8" font-family="Helvetica,sans-Serif" font-weight="bold" font-size="11.00" fill="#000000">ParameterTable</text>
<text text-anchor="start" x="175.0437" y="-168.8" font-family="Helvetica,sans-Serif" font-size="11.00" fill="#000000">[table]</text>
<polygon fill="none" stroke="#000000" points="8,-138.7 8,-160.7 210,-160.7 210,-138.7 8,-138.7"/>
<image xlink:href="../../images/primaryKeys.png" width="11px" height="12px" preserveAspectRatio="xMinYMin meet" x="13" y="-155.7"/>
<text text-anchor="start" x="28" y="-145.8" font-family="Helvetica,sans-Serif" font-size="11.00" fill="#000000">cldf_id</text>
<polygon fill="none" stroke="#000000" points="8,-119.7 8,-138.7 210,-138.7 210,-119.7 8,-119.7"/>
<text text-anchor="start" x="11" y="-125.8" font-family="Helvetica,sans-Serif" font-size="11.00" fill="#000000">...</text>
<polygon fill="#ffffff" stroke="transparent" points="8,-100.7 8,-119.7 79,-119.7 79,-100.7 8,-100.7"/>
<polygon fill="none" stroke="#000000" points="8,-100.7 8,-119.7 79,-119.7 79,-100.7 8,-100.7"/>
<text text-anchor="start" x="11" y="-106.8" font-family="Helvetica,sans-Serif" font-size="11.00" fill="#000000"> &#160;</text>
<polygon fill="#ffffff" stroke="transparent" points="79,-100.7 79,-119.7 159,-119.7 159,-100.7 79,-100.7"/>
<polygon fill="none" stroke="#000000" points="79,-100.7 79,-119.7 159,-119.7 159,-100.7 79,-100.7"/>
<text text-anchor="start" x="111.3807" y="-106.8" font-family="Helvetica,sans-Serif" font-size="11.00" fill="#000000">168 rows</text>
<polygon fill="#ffffff" stroke="transparent" points="159,-100.7 159,-119.7 210,-119.7 210,-100.7 159,-100.7"/>
<polygon fill="none" stroke="#000000" points="159,-100.7 159,-119.7 210,-119.7 210,-100.7 159,-100.7"/>
<text text-anchor="start" x="191.4053" y="-106.8" font-family="Helvetica,sans-Serif" font-size="11.00" fill="#000000">1 &gt;</text>
</a>
</g>
</g>
<!-- FormTable&#45;&gt;ParameterTable -->
<g id="edge2" class="edge">
<title>FormTable:w&#45;&gt;ParameterTable:e</title>
<path fill="none" stroke="#000000" d="M245.5753,-185.9968C232.543,-175.2274 232.5408,-149.7 210,-149.7"/>
<polygon fill="#000000" stroke="#000000" points="251.9207,-188.14 258.348,-194.1107 255.7103,-189.42 259.5,-190.7 259.5,-190.7 259.5,-190.7 255.7103,-189.42 260.652,-187.2893 251.9207,-188.14 251.9207,-188.14"/>
<ellipse fill="none" stroke="#000000" cx="248.8889" cy="-187.1159" rx="3.2" ry="3.2"/>
</g>
<!-- FormTable_SourceTable -->
<g id="node2" class="node">
<title>FormTable_SourceTable</title>
<g id="a_node2"><a xlink:href="../../tables/FormTable_SourceTable.html" xlink:title="FormTable_SourceTable" target="_top">
<polygon fill="#ffffff" stroke="transparent" points="499,-101.2 499,-206.2 681,-206.2 681,-101.2 499,-101.2"/>
<polygon fill="#f5f5f5" stroke="transparent" points="499,-182.7 499,-205.7 681,-205.7 681,-182.7 499,-182.7"/>
<polygon fill="none" stroke="#000000" points="499,-182.7 499,-205.7 681,-205.7 681,-182.7 499,-182.7"/>
<text text-anchor="start" x="504" y="-191.8" font-family="Helvetica,sans-Serif" font-weight="bold" font-size="11.00" fill="#000000">FormTable_SourceTable</text>
<text text-anchor="start" x="646.0437" y="-190.8" font-family="Helvetica,sans-Serif" font-size="11.00" fill="#000000">[table]</text>
<polygon fill="none" stroke="#000000" points="499,-160.7 499,-182.7 681,-182.7 681,-160.7 499,-160.7"/>
<image xlink:href="../../images/foreignKeys.png" width="11px" height="12px" preserveAspectRatio="xMinYMin meet" x="504" y="-177.7"/>
<text text-anchor="start" x="519" y="-167.8" font-family="Helvetica,sans-Serif" font-size="11.00" fill="#000000">FormTable_cldf_id</text>
<polygon fill="none" stroke="#000000" points="499,-138.7 499,-160.7 681,-160.7 681,-138.7 499,-138.7"/>
<image xlink:href="../../images/foreignKeys.png" width="11px" height="12px" preserveAspectRatio="xMinYMin meet" x="504" y="-155.7"/>
<text text-anchor="start" x="519" y="-145.8" font-family="Helvetica,sans-Serif" font-size="11.00" fill="#000000">SourceTable_id</text>
<polygon fill="none" stroke="#000000" points="499,-119.7 499,-138.7 681,-138.7 681,-119.7 499,-119.7"/>
<text text-anchor="start" x="502" y="-125.8" font-family="Helvetica,sans-Serif" font-size="11.00" fill="#000000">...</text>
<polygon fill="#ffffff" stroke="transparent" points="499,-100.7 499,-119.7 562,-119.7 562,-100.7 499,-100.7"/>
<polygon fill="none" stroke="#000000" points="499,-100.7 499,-119.7 562,-119.7 562,-100.7 499,-100.7"/>
<text text-anchor="start" x="502" y="-106.8" font-family="Helvetica,sans-Serif" font-size="11.00" fill="#000000">&lt; 2</text>
<polygon fill="#ffffff" stroke="transparent" points="562,-100.7 562,-119.7 648,-119.7 648,-100.7 562,-100.7"/>
<polygon fill="none" stroke="#000000" points="562,-100.7 562,-119.7 648,-119.7 648,-100.7 562,-100.7"/>
<text text-anchor="start" x="585.094" y="-106.8" font-family="Helvetica,sans-Serif" font-size="11.00" fill="#000000">60,533 rows</text>
<polygon fill="#ffffff" stroke="transparent" points="648,-100.7 648,-119.7 681,-119.7 681,-100.7 648,-100.7"/>
<polygon fill="none" stroke="#000000" points="648,-100.7 648,-119.7 681,-119.7 681,-100.7 648,-100.7"/>
<text text-anchor="start" x="671.8862" y="-106.8" font-family="Helvetica,sans-Serif" font-size="11.00" fill="#000000"> &#160;</text>
</a>
</g>
</g>
<!-- FormTable_SourceTable&#45;&gt;FormTable -->
<g id="edge3" class="edge">
<title>FormTable_SourceTable:w&#45;&gt;FormTable:e</title>
<path fill="none" stroke="#000000" d="M485.2924,-176.6435C469.5867,-191.4952 479.7627,-234.7 450.5,-234.7"/>
<polygon fill="#000000" stroke="#000000" points="491.4744,-174.4141 500.2213,-175.0865 495.2372,-173.057 499,-171.7 499,-171.7 499,-171.7 495.2372,-173.057 497.7787,-168.3135 491.4744,-174.4141 491.4744,-174.4141"/>
<ellipse fill="none" stroke="#000000" cx="488.4642" cy="-175.4997" rx="3.2" ry="3.2"/>
</g>
<!-- SourceTable -->
<g id="node5" class="node">
<title>SourceTable</title>
<g id="a_node5"><a xlink:href="../../tables/SourceTable.html" xlink:title="SourceTable" target="_top">
<polygon fill="#ffffff" stroke="transparent" points="297,-38.2 297,-121.2 412,-121.2 412,-38.2 297,-38.2"/>
<polygon fill="#f5f5f5" stroke="transparent" points="297.5,-97.7 297.5,-120.7 412.5,-120.7 412.5,-97.7 297.5,-97.7"/>
<polygon fill="none" stroke="#000000" points="297.5,-97.7 297.5,-120.7 412.5,-120.7 412.5,-97.7 297.5,-97.7"/>
<text text-anchor="start" x="302.5" y="-106.8" font-family="Helvetica,sans-Serif" font-weight="bold" font-size="11.00" fill="#000000">SourceTable</text>
<text text-anchor="start" x="377.5437" y="-105.8" font-family="Helvetica,sans-Serif" font-size="11.00" fill="#000000">[table]</text>
<polygon fill="none" stroke="#000000" points="297.5,-75.7 297.5,-97.7 412.5,-97.7 412.5,-75.7 297.5,-75.7"/>
<image xlink:href="../../images/primaryKeys.png" width="11px" height="12px" preserveAspectRatio="xMinYMin meet" x="302.5" y="-92.7"/>
<text text-anchor="start" x="317.5" y="-82.8" font-family="Helvetica,sans-Serif" font-size="11.00" fill="#000000">id</text>
<polygon fill="none" stroke="#000000" points="297.5,-56.7 297.5,-75.7 412.5,-75.7 412.5,-56.7 297.5,-56.7"/>
<text text-anchor="start" x="300.5" y="-62.8" font-family="Helvetica,sans-Serif" font-size="11.00" fill="#000000">...</text>
<polygon fill="#ffffff" stroke="transparent" points="297.5,-37.7 297.5,-56.7 334.5,-56.7 334.5,-37.7 297.5,-37.7"/>
<polygon fill="none" stroke="#000000" points="297.5,-37.7 297.5,-56.7 334.5,-56.7 334.5,-37.7 297.5,-37.7"/>
<text text-anchor="start" x="300.5" y="-43.8" font-family="Helvetica,sans-Serif" font-size="11.00" fill="#000000"> &#160;</text>
<polygon fill="#ffffff" stroke="transparent" points="334.5,-37.7 334.5,-56.7 378.5,-56.7 378.5,-37.7 334.5,-37.7"/>
<polygon fill="none" stroke="#000000" points="334.5,-37.7 334.5,-56.7 378.5,-56.7 378.5,-37.7 334.5,-37.7"/>
<text text-anchor="start" x="348.6105" y="-43.8" font-family="Helvetica,sans-Serif" font-size="11.00" fill="#000000">1 row</text>
<polygon fill="#ffffff" stroke="transparent" points="378.5,-37.7 378.5,-56.7 412.5,-56.7 412.5,-37.7 378.5,-37.7"/>
<polygon fill="none" stroke="#000000" points="378.5,-37.7 378.5,-56.7 412.5,-56.7 412.5,-37.7 378.5,-37.7"/>
<text text-anchor="start" x="393.9053" y="-43.8" font-family="Helvetica,sans-Serif" font-size="11.00" fill="#000000">1 &gt;</text>
</a>
</g>
</g>
<!-- FormTable_SourceTable&#45;&gt;SourceTable -->
<g id="edge4" class="edge">
<title>FormTable_SourceTable:w&#45;&gt;SourceTable:e</title>
<path fill="none" stroke="#000000" d="M484.4134,-147.3073C452.6887,-135.7995 454.4868,-86.7 412.5,-86.7"/>
<polygon fill="#000000" stroke="#000000" points="491.1055,-148.405 498.4172,-153.2525 495.0528,-149.0525 499,-149.7 499,-149.7 499,-149.7 495.0528,-149.0525 499.5828,-146.1475 491.1055,-148.405 491.1055,-148.405"/>
<ellipse fill="none" stroke="#000000" cx="487.9477" cy="-147.887" rx="3.2" ry="3.2"/>
</g>
</g>
</svg>

